<?xml version="1.0" encoding="utf-8"?>
<!-- Generator: Adobe Illustrator 23.0.1, SVG Export Plug-In . SVG Version: 6.00 Build 0)  -->
<svg version="1.1" xmlns="http://www.w3.org/2000/svg" xmlns:xlink="http://www.w3.org/1999/xlink" x="0px" y="0px"
	 viewBox="0 0 206.5 279.67" style="enable-background:new 0 0 206.5 279.67;" xml:space="preserve">
<style type="text/css">
	.st0{fill:#FFFFFF;}
	.st1{fill:none;stroke:#FFFFFF;stroke-width:0.25;}
</style>
<g id="B-Brio-Brendwood">
	<g id="Brio">
		<g>
			<path class="st0" d="M54.27,134.83h15.3c8.08,0,10.23,4.21,10.23,10.4v9.8c0,5.33-2.32,7.91-4.81,8.85
				c2.58,0.86,5.59,3.01,5.59,9.37v13.84c0,6.79-3.01,11.69-10.31,11.69H54.27V134.83z M63.98,143.51v16.59h2.92
				c2.58,0,3.35-1.8,3.35-4.47v-8.08c0-2.58-0.69-4.04-3.35-4.04H63.98z M63.98,169.64v20.11h2.92c3.09,0,3.78-1.46,3.78-4.3v-11.69
				c0-2.66-0.69-4.13-3.78-4.13H63.98z"/>
			<path class="st0" d="M95.53,198.78h-9.71v-63.95h15.73c6.45,0,9.71,2.75,9.71,9.88v11.35c0,5.33-2.49,7.39-4.21,8.16
				c2.15,0.95,4.21,2.67,4.21,6.96v22.43c0,2.58,0.52,3.78,0.95,4.73v0.43h-9.63c-0.43-0.69-0.95-1.81-0.95-5.24v-19.25
				c0-2.84-0.52-4.04-3.61-4.04h-2.49V198.78z M95.53,161.13h2.58c2.67,0,3.52-1.72,3.52-4.55v-8.94c0-2.75-0.6-4.13-3.52-4.13
				h-2.58V161.13z"/>
			<path class="st0" d="M127.76,198.78h-9.71v-63.95h9.71V198.78z"/>
			<path class="st0" d="M161.11,184.51c0,8.94-3.01,15.04-12.38,15.04h-1.63c-9.28,0-12.55-6.1-12.55-15.04v-35.58
				c0-8.85,3.35-14.7,12.46-14.7h1.63c9.46,0,12.46,5.84,12.46,14.61V184.51z M151.22,148.41c0-3.35-1.12-4.9-3.35-4.9
				c-2.49,0-3.44,1.63-3.44,4.9v36.79c0,2.75,0.77,4.9,3.52,4.9c2.58,0,3.27-2.15,3.27-4.9V148.41z"/>
		</g>
	</g>
	<g id="B">
		<path class="st0" d="M110.63,68.36H92.04v31.58h18.59c8.71,0,15.79-7.08,15.79-15.79C126.43,75.44,119.34,68.36,110.63,68.36z
			 M110.63,95.68H96.31V72.63h14.33c6.36,0,11.53,5.17,11.53,11.52C122.16,90.51,116.99,95.68,110.63,95.68z"/>
		<path class="st0" d="M120.6,62.82c8.08-3.71,13.7-11.88,13.7-21.33c0-12.94-10.53-23.46-23.46-23.46H84.12v89.59h26.73
			c12.94,0,23.46-10.52,23.46-23.46C134.31,74.7,128.68,66.53,120.6,62.82z M88.38,22.29h22.46c10.58,0,19.2,8.61,19.2,19.19
			c0,10.58-8.61,19.19-19.2,19.19l-22.46,0.01V22.29z M110.84,103.35H88.38V64.96h22.46c10.58,0,19.2,8.61,19.2,19.19
			C130.04,94.73,121.43,103.35,110.84,103.35z"/>
		<path class="st0" d="M126.6,41.48c0-8.76-7.12-15.88-15.88-15.88H92.04v31.76h18.68C119.48,57.36,126.6,50.24,126.6,41.48z
			 M110.72,53.1H96.31V29.87h14.42c6.4,0,11.61,5.21,11.61,11.61C122.34,47.89,117.13,53.1,110.72,53.1z"/>
		<path class="st0" d="M142.2,41.48c0-17.14-13.95-31.09-31.09-31.09l-34.85,0.01v104.84l34.85,0c17.14,0,31.09-13.95,31.09-31.09
			c0-7.93-3.06-15.59-8.48-21.33C139.13,57.07,142.2,49.42,142.2,41.48z M137.93,84.15c0,14.79-12.03,26.82-26.82,26.82l-30.58,0
			V14.67l30.58-0.01c14.79,0,26.82,12.03,26.82,26.82c0,7.49-3.17,14.69-8.69,19.76l-1.71,1.57l1.71,1.57
			C134.76,69.46,137.93,76.66,137.93,84.15z"/>
	</g>
	<g id="Brendwood">
		<g>
			<path class="st0" d="M53.58,220.02h1.41v-8.81h-1.41v-1.11H58c2.61,0,3.7,1.32,3.7,2.8c0,1.32-0.82,2.21-2.01,2.58
				c1.47,0.39,2.33,1.21,2.33,2.63c0,1.74-1.39,3.02-3.82,3.02h-4.62V220.02z M57.85,214.99c1.74,0,2.61-0.8,2.61-1.98
				c0-1.14-0.87-1.83-2.5-1.83h-1.74v3.8H57.85z M58.24,220.04c1.63,0,2.55-0.82,2.55-1.99c0-1.32-1.09-2.03-2.9-2.03h-1.66v4.02
				H58.24z"/>
			<path class="st0" d="M64.17,220.02h1.41v-8.81h-1.41v-1.11h4.19c2.43,0,4,1.22,4,3.2c0,1.51-0.97,2.56-2.36,3.02l2.31,3.7h1.32
				v1.11h-2.18l-2.71-4.51c-0.2,0.02-0.42,0.03-0.64,0.03c-0.44,0-0.96-0.02-1.27-0.03v3.4h1.44v1.11h-4.1V220.02z M71.1,213.33
				c0-1.39-1.11-2.13-2.81-2.13h-1.46v4.32c0.34,0.02,0.8,0.03,1.34,0.03C69.85,215.56,71.1,214.79,71.1,213.33z"/>
			<path class="st0" d="M75.42,220.02h1.41v-8.81h-1.41v-1.11h8.01v2.7h-1.19v-1.61h-4.16v3.79h3.6v1.07h-3.6v3.99h4.16v-1.61h1.21
				v2.7h-8.02V220.02z"/>
			<path class="st0" d="M88.34,212.28v7.74h1.44v1.11h-4.05v-1.11h1.41v-8.81h-1.41v-1.11h2.5l6.37,8.39v-7.29h-1.46v-1.11h4v1.11
				h-1.36v9.95l-0.69,0.02L88.34,212.28z"/>
			<path class="st0" d="M101.45,220.02h1.49v-8.86h-2.76v1.78h-1.19v-2.83h9.16v2.83h-1.19v-1.78h-2.76v8.86h1.49v1.11h-4.24V220.02
				z"/>
			<path class="st0" d="M111.22,211.21h-1.27v-1.11h3.99v1.11h-1.39l2.31,7.72l2.76-7.51h0.69l2.78,7.49l2.25-7.71h-1.44v-1.11h3.97
				v1.11h-1.27l-3.08,10.09h-0.72l-2.85-7.59l-2.87,7.59h-0.72L111.22,211.21z"/>
			<path class="st0" d="M125.77,215.63c0-3.23,2.36-5.73,5.61-5.73c3.2,0,5.54,2.51,5.54,5.7c0,3.23-2.38,5.73-5.61,5.73
				C128.1,221.33,125.77,218.81,125.77,215.63z M135.64,215.63c0-2.6-1.78-4.59-4.29-4.59c-2.53,0-4.31,1.98-4.31,4.56
				c0,2.6,1.78,4.59,4.31,4.59C133.86,220.19,135.64,218.21,135.64,215.63z"/>
			<path class="st0" d="M138.12,215.63c0-3.23,2.36-5.73,5.61-5.73c3.2,0,5.55,2.51,5.55,5.7c0,3.23-2.38,5.73-5.61,5.73
				C140.45,221.33,138.12,218.81,138.12,215.63z M147.99,215.63c0-2.6-1.78-4.59-4.29-4.59c-2.53,0-4.31,1.98-4.31,4.56
				c0,2.6,1.78,4.59,4.31,4.59C146.21,220.19,147.99,218.21,147.99,215.63z"/>
			<path class="st0" d="M150.81,220.02h1.41v-8.81h-1.41v-1.11h4.14c3.84,0,6.33,2.13,6.33,5.4c0,3.33-2.33,5.63-6.38,5.63h-4.09
				V220.02z M155.05,220.02c3.3,0,4.96-1.84,4.96-4.54c0-2.65-1.98-4.27-5.09-4.27h-1.44v8.81H155.05z"/>
		</g>
	</g>
</g>
<g id="Brand_Logos">
	<g id="RioCan_Logo">
		<path class="st0" d="M14.87,255.07c0.36,0,0.65-0.03,0.89-0.08c0.24-0.05,0.43-0.13,0.56-0.23c0.14-0.1,0.24-0.21,0.3-0.35
			c0.06-0.13,0.09-0.28,0.09-0.43c0-0.16-0.03-0.3-0.09-0.44c-0.06-0.13-0.16-0.25-0.3-0.35c-0.14-0.1-0.33-0.17-0.56-0.23
			c-0.24-0.05-0.53-0.08-0.89-0.08H12.3v2.18H14.87z M15.26,251.62c0.47,0,0.9,0.04,1.29,0.12c0.39,0.08,0.72,0.22,0.99,0.4
			s0.49,0.42,0.64,0.71c0.15,0.29,0.22,0.65,0.22,1.07c0,0.65-0.19,1.15-0.58,1.49c-0.39,0.35-0.9,0.58-1.56,0.69l1.97,2.8
			c0.07,0.1,0.15,0.16,0.24,0.18c0.09,0.02,0.18,0.03,0.26,0.03v0.26h-2.77v-0.26c0.09,0,0.17-0.01,0.23-0.05
			c0.06-0.03,0.1-0.07,0.1-0.12c0-0.05-0.02-0.1-0.06-0.17c-0.04-0.06-0.1-0.15-0.18-0.26l-1.63-2.3H12.3v2.62
			c0,0.09,0.03,0.16,0.1,0.2c0.06,0.04,0.18,0.07,0.35,0.07v0.26h-2.57v-0.26c0.29,0,0.43-0.09,0.43-0.27v-6.69
			c0-0.18-0.14-0.26-0.43-0.26v-0.27H15.26z"/>
		<path class="st0" d="M22.87,259.11c0.26,0,0.39-0.09,0.39-0.27v-6.69c0-0.18-0.13-0.27-0.39-0.27v-0.27h2.46v0.27
			c-0.26,0-0.39,0.09-0.39,0.27v6.69c0,0.18,0.13,0.27,0.39,0.27v0.27h-2.46V259.11z"/>
		<path class="st0" d="M33.15,253.07c-0.38,0.12-0.71,0.29-1.02,0.51c-0.3,0.22-0.55,0.49-0.73,0.82c-0.19,0.32-0.28,0.69-0.28,1.11
			c0,0.41,0.09,0.78,0.28,1.1c0.19,0.32,0.43,0.6,0.73,0.82c0.3,0.22,0.64,0.39,1.02,0.51c0.38,0.12,0.75,0.18,1.13,0.18
			c0.38,0,0.75-0.06,1.13-0.18c0.38-0.12,0.71-0.29,1.02-0.51c0.3-0.22,0.55-0.49,0.73-0.82s0.28-0.69,0.28-1.1
			c0-0.41-0.09-0.78-0.28-1.11c-0.19-0.32-0.43-0.6-0.73-0.82c-0.3-0.22-0.64-0.39-1.02-0.51c-0.38-0.12-0.75-0.18-1.13-0.18
			C33.91,252.89,33.53,252.95,33.15,253.07 M35.94,251.78c0.56,0.16,1.08,0.41,1.54,0.73c0.47,0.32,0.85,0.73,1.14,1.23
			c0.3,0.5,0.45,1.08,0.45,1.76c0,0.68-0.15,1.27-0.45,1.76c-0.3,0.5-0.68,0.91-1.14,1.23c-0.47,0.32-0.98,0.56-1.54,0.71
			c-0.56,0.15-1.12,0.22-1.66,0.22c-0.54,0-1.1-0.07-1.66-0.22c-0.56-0.15-1.08-0.38-1.54-0.71c-0.47-0.32-0.84-0.73-1.14-1.23
			c-0.3-0.49-0.45-1.08-0.45-1.76c0-0.68,0.15-1.27,0.45-1.76c0.3-0.5,0.68-0.91,1.14-1.23c0.47-0.32,0.98-0.57,1.54-0.73
			c0.56-0.16,1.12-0.24,1.66-0.24C34.83,251.53,35.38,251.62,35.94,251.78"/>
		<path class="st0" d="M61.6,258.29c-0.03,0-0.06,0-0.08-0.01c-0.03-0.01-0.05-0.01-0.08-0.01c-0.06,0-0.2,0.06-0.42,0.18
			c-0.22,0.12-0.5,0.25-0.84,0.4c-0.34,0.15-0.73,0.27-1.17,0.38c-0.43,0.11-0.89,0.16-1.37,0.16c-0.62,0-1.22-0.08-1.79-0.24
			c-0.57-0.16-1.08-0.4-1.52-0.73c-0.44-0.33-0.79-0.74-1.05-1.23c-0.26-0.49-0.38-1.07-0.38-1.72c0-0.65,0.13-1.22,0.38-1.72
			c0.26-0.5,0.61-0.91,1.05-1.25s0.95-0.58,1.52-0.75s1.17-0.25,1.79-0.25c0.51,0,0.96,0.04,1.37,0.12
			c0.41,0.08,0.77,0.16,1.07,0.25c0.31,0.09,0.55,0.17,0.73,0.25c0.18,0.08,0.29,0.12,0.33,0.12c0.05,0,0.09-0.02,0.12-0.07
			c0.03-0.05,0.06-0.09,0.08-0.12l0.22,0.18l-1.16,1.78l-0.15-0.1c0-0.03,0-0.06-0.01-0.09c-0.01-0.03-0.01-0.06-0.02-0.1
			c-0.02-0.11-0.12-0.22-0.3-0.33s-0.4-0.21-0.66-0.3c-0.26-0.09-0.54-0.16-0.83-0.22c-0.29-0.06-0.56-0.09-0.81-0.09
			c-0.42,0-0.81,0.06-1.19,0.18c-0.38,0.12-0.71,0.29-0.99,0.52c-0.28,0.23-0.51,0.5-0.67,0.83c-0.17,0.33-0.25,0.71-0.25,1.13
			c0,0.42,0.08,0.8,0.25,1.13c0.17,0.33,0.39,0.61,0.67,0.83c0.28,0.23,0.61,0.4,0.99,0.52c0.38,0.12,0.78,0.18,1.19,0.18
			c0.32,0,0.65-0.04,1-0.11c0.34-0.07,0.66-0.17,0.95-0.28c0.29-0.11,0.53-0.24,0.72-0.38c0.19-0.14,0.29-0.28,0.29-0.4
			c0-0.07-0.02-0.13-0.06-0.18l0.21-0.12l0.98,1.56L61.6,258.29z"/>
		<path class="st0" d="M70.34,256.34l-1.25-2.74l-1.4,2.74H70.34z M64.74,259.09c0.13-0.02,0.23-0.08,0.3-0.19
			c0.07-0.11,0.15-0.23,0.21-0.37l2.75-5.73c0.07-0.13,0.13-0.25,0.18-0.35c0.05-0.11,0.08-0.2,0.08-0.28c0-0.1-0.03-0.17-0.1-0.21
			c-0.07-0.04-0.14-0.07-0.22-0.09v-0.27h2.51v0.27c-0.07,0.02-0.14,0.05-0.21,0.08c-0.07,0.03-0.1,0.1-0.1,0.21
			c0,0.08,0.02,0.16,0.05,0.23c0.03,0.08,0.09,0.18,0.16,0.31l3.08,6c0.05,0.11,0.12,0.19,0.2,0.24c0.08,0.05,0.18,0.1,0.29,0.15
			v0.27h-2.61v-0.27c0.04,0,0.09-0.01,0.15-0.04c0.06-0.03,0.09-0.07,0.09-0.13c0-0.1-0.04-0.23-0.12-0.38l-0.56-1.09h-3.62
			l-0.53,1.05c-0.1,0.21-0.15,0.35-0.15,0.44c0,0.11,0.09,0.16,0.28,0.16v0.27h-2.11V259.09z"/>
		<path class="st0" d="M77.31,259.09c0.19,0,0.28-0.09,0.28-0.27v-6.69c0-0.18-0.09-0.26-0.28-0.26v-0.27h2.54v0.27
			c-0.08,0-0.12,0.05-0.12,0.14c0,0.08,0.1,0.22,0.3,0.41l4.26,4.39v-4.69c0-0.18-0.13-0.26-0.39-0.26v-0.27h2.24v0.27
			c-0.19,0-0.28,0.09-0.28,0.26v6.69c0,0.18,0.09,0.27,0.28,0.27v0.27h-2.4v-0.27c0.13,0,0.19-0.05,0.19-0.13
			c0-0.07-0.08-0.18-0.24-0.34l-4.53-4.69v4.89c0,0.18,0.11,0.27,0.34,0.27v0.27h-2.2V259.09z"/>
		<polygon class="st0" points="45.76,259.25 45.52,259.25 45.57,257.38 43.71,257.69 44.03,256.99 42.34,255.47 42.74,255.31 
			42.35,254.08 43.12,254.3 43.5,253.7 44.67,254.79 44.48,252.64 45.01,252.91 45.75,251.38 46.5,252.91 47.03,252.64 
			46.84,254.79 47.86,253.7 48.24,254.3 49.25,254.02 48.97,255.31 49.35,255.44 47.47,256.99 47.81,257.69 45.95,257.38 46,259.25 
					"/>
		<polygon class="st0" points="54.31,267.37 54.31,262.69 54.93,262.69 54.93,266.82 57.23,266.82 57.23,267.37 		"/>
		<rect x="60.3" y="262.69" class="st0" width="0.62" height="4.68"/>
		<path class="st0" d="M65.57,267.37l-1.81-4.68h0.67l1.22,3.4c0.1,0.27,0.18,0.53,0.25,0.77c0.07-0.26,0.16-0.51,0.25-0.77
			l1.26-3.4h0.63l-1.83,4.68H65.57z"/>
		<rect x="70.92" y="262.69" class="st0" width="0.62" height="4.68"/>
		<polygon class="st0" points="74.85,267.37 74.85,262.69 75.48,262.69 77.94,266.37 77.94,262.69 78.54,262.69 78.54,267.37 
			77.9,267.37 75.44,263.7 75.44,267.37 		"/>
		<path class="st0" d="M83.99,265.54v-0.55l1.98,0v1.74c-0.3,0.24-0.62,0.42-0.94,0.55c-0.32,0.12-0.66,0.18-1,0.18
			c-0.46,0-0.88-0.1-1.25-0.29c-0.38-0.2-0.66-0.48-0.85-0.86c-0.19-0.37-0.29-0.79-0.29-1.25c0-0.46,0.1-0.88,0.29-1.27
			c0.19-0.39,0.47-0.69,0.82-0.88c0.36-0.19,0.77-0.29,1.24-0.29c0.34,0,0.64,0.05,0.92,0.16c0.27,0.11,0.49,0.26,0.64,0.46
			c0.15,0.2,0.27,0.45,0.35,0.77l-0.56,0.15c-0.07-0.24-0.16-0.43-0.26-0.56c-0.1-0.14-0.25-0.25-0.45-0.33
			c-0.19-0.08-0.41-0.12-0.64-0.12c-0.28,0-0.53,0.04-0.73,0.13c-0.21,0.09-0.37,0.2-0.5,0.34c-0.13,0.14-0.23,0.29-0.3,0.46
			c-0.12,0.29-0.18,0.6-0.18,0.94c0,0.42,0.07,0.77,0.22,1.05c0.14,0.28,0.35,0.49,0.63,0.63c0.27,0.14,0.57,0.21,0.87,0.21
			c0.27,0,0.53-0.05,0.79-0.16c0.26-0.1,0.45-0.21,0.58-0.33v-0.87H83.99z"/>
	</g>
	<line id="logo_divider" class="st1" x1="104.79" y1="244.16" x2="104.79" y2="272.8"/>
	<g id="boardwalk_logo">
		<g>
			<path class="st0" d="M160.29,273.67c-0.02-0.02-0.03-0.05-0.03-0.11c0-0.07,0.02-0.12,0.08-0.15c0.21-0.14,0.53-0.31,0.97-0.51
				c-0.02-0.32,0.05-0.81,0.22-1.47c0.2-0.78,0.48-1.64,0.84-2.56c0.37-0.98,0.77-1.88,1.19-2.68c0.42-0.81,0.78-1.4,1.1-1.77
				c0.04-0.05,0.09-0.07,0.13-0.07c0.04,0,0.08,0.02,0.14,0.05c0.04,0.03,0.06,0.08,0.06,0.13c0,0.05-0.01,0.1-0.05,0.14
				c-0.29,0.34-0.64,0.91-1.04,1.71c-0.41,0.8-0.8,1.68-1.18,2.63c-0.37,0.97-0.65,1.81-0.82,2.52c-0.13,0.52-0.19,0.92-0.2,1.2
				c0.7-0.33,1.44-0.63,2.22-0.92c0.85-0.31,1.59-0.53,2.19-0.66c0.29-0.05,0.52-0.09,0.68-0.09c0.37-0.01,0.63,0.05,0.77,0.2
				c0.03,0.03,0.04,0.08,0.05,0.12c0,0.06-0.01,0.11-0.05,0.15c-0.04,0.03-0.08,0.04-0.12,0.05c-0.06,0-0.12-0.01-0.15-0.05
				c-0.05-0.07-0.21-0.1-0.48-0.09c-0.17,0.01-0.38,0.03-0.63,0.08c-0.6,0.12-1.31,0.34-2.14,0.65c-0.78,0.28-1.54,0.6-2.28,0.95
				h0.01c0.05,0.02,0.08,0.05,0.11,0.09c0.03,0.04,0.04,0.09,0.03,0.14c-0.01,0.04-0.03,0.07-0.06,0.1
				c-0.04,0.03-0.08,0.04-0.12,0.05l-0.04,0c-0.12-0.03-0.21-0.1-0.28-0.21c-0.4,0.19-0.69,0.34-0.85,0.46
				c-0.05,0.02-0.09,0.03-0.11,0.03C160.37,273.77,160.31,273.74,160.29,273.67"/>
			<path class="st0" d="M168.35,267.53c-0.05-0.02-0.08-0.05-0.11-0.09c-0.03-0.04-0.04-0.08-0.03-0.13
				c0.05-0.29,0.33-0.45,0.84-0.47c0.11,0,0.26,0,0.47,0.01c0.05,0.01,0.08,0.03,0.12,0.06c0.03,0.03,0.05,0.07,0.05,0.11
				c0,0.05-0.02,0.1-0.06,0.14c-0.04,0.04-0.09,0.07-0.15,0.07c-0.11-0.01-0.26-0.02-0.44-0.01c-0.14,0.01-0.25,0.02-0.3,0.04
				c-0.11,0.03-0.16,0.07-0.16,0.12c-0.03,0.1-0.09,0.15-0.17,0.16C168.38,267.54,168.36,267.54,168.35,267.53 M167.68,271.22
				c0,0-0.04-0.03-0.13-0.1c-0.1-0.1-0.16-0.23-0.16-0.39c-0.01-0.16,0.03-0.34,0.1-0.54c0.08-0.25,0.21-0.55,0.39-0.89l0.06-0.14
				c0-0.05,0.01-0.1,0.05-0.14c0.05-0.04,0.1-0.06,0.15-0.06c0.04,0,0.07,0.01,0.11,0.04c0.03,0.01,0.05,0.03,0.07,0.08
				c0.02,0.05,0.02,0.1-0.01,0.15c0,0.01-0.01,0.03-0.02,0.07l-0.08,0.17c-0.03,0.05-0.08,0.17-0.16,0.35
				c-0.08,0.18-0.15,0.34-0.2,0.5c-0.1,0.29-0.12,0.46-0.06,0.51c0,0.01,0.05,0.01,0.14,0.01c0.09,0,0.25-0.05,0.49-0.16
				c0.23-0.1,0.55-0.27,0.94-0.51c0.53-0.34,1.05-0.71,1.55-1.1l0.01,0c0.04-0.03,0.08-0.04,0.11-0.05c0.07,0,0.13,0.02,0.17,0.08
				c0.02,0.04,0.03,0.07,0.03,0.1c0,0.06-0.02,0.12-0.08,0.17c0,0.01,0,0.01-0.01,0.01c-0.66,0.48-1.18,0.85-1.57,1.11
				c-0.48,0.28-0.85,0.48-1.11,0.59c-0.24,0.09-0.42,0.14-0.54,0.14C167.75,271.22,167.68,271.22,167.68,271.22"/>
			<path class="st0" d="M172.43,266.05c-0.23,0.51-0.44,1.01-0.63,1.5C172.06,267.04,172.27,266.54,172.43,266.05 M169.36,273.24
				c-0.02-0.04-0.03-0.08-0.03-0.12c0.02-0.38,0.23-0.79,0.61-1.25c0.19-0.43,0.35-0.82,0.48-1.19c0.13-0.37,0.29-0.87,0.47-1.52
				l0.04-0.14l0.12-0.44c0.24-0.82,0.54-1.6,0.88-2.35c0.24-0.57,0.42-0.92,0.54-1.08c0.12-0.15,0.21-0.23,0.29-0.24
				c0.06,0,0.11,0.01,0.15,0.05c0.04,0.04,0.06,0.08,0.06,0.14c0.01,0.57-0.19,1.29-0.6,2.14c-0.41,0.85-0.79,1.53-1.14,2.05
				c-0.23,0.84-0.43,1.47-0.6,1.9c0.86-0.73,2.03-1.46,3.53-2.21l0.08-0.04c0.03-0.02,0.07-0.03,0.1-0.03
				c0.06,0,0.11,0.02,0.15,0.08c0.03,0.03,0.04,0.06,0.05,0.11c0,0.07-0.02,0.12-0.08,0.15l-0.12,0.07
				c-0.96,0.48-1.79,0.96-2.49,1.43c-0.7,0.47-1.23,0.92-1.6,1.33c-0.2,0.44-0.39,0.83-0.57,1.16c-0.04,0.06-0.1,0.09-0.16,0.09
				l-0.07,0C169.42,273.3,169.39,273.27,169.36,273.24"/>
			<path class="st0" d="M174.83,268.94c-0.07,0.06-0.12,0.1-0.16,0.14l-0.12,0.11C174.67,269.11,174.76,269.03,174.83,268.94
				 M174.05,270.77c-0.1-0.07-0.17-0.14-0.22-0.22c-0.07-0.1-0.1-0.22-0.11-0.37c-0.01-0.2,0.04-0.4,0.14-0.61
				c0.11-0.25,0.28-0.49,0.51-0.72c0.23-0.23,0.43-0.37,0.6-0.41l0.08-0.02c0.06,0,0.12,0.01,0.18,0.05
				c0.08,0.07,0.11,0.17,0.09,0.3c-0.03,0.16-0.14,0.35-0.33,0.55c-0.19,0.2-0.47,0.38-0.84,0.53c-0.04,0.14-0.06,0.25-0.06,0.33
				c0,0.07,0.02,0.13,0.05,0.18c0.04,0.09,0.16,0.13,0.36,0.12c0.36-0.01,0.87-0.21,1.55-0.58c0.67-0.37,1.29-0.75,1.84-1.12
				c0.04-0.02,0.07-0.03,0.11-0.03c0.06,0,0.11,0.02,0.15,0.08c0.03,0.03,0.04,0.06,0.05,0.11c0,0.06-0.03,0.12-0.09,0.15
				c-0.07,0.05-0.25,0.16-0.52,0.34c-0.28,0.18-0.57,0.36-0.88,0.55c-1,0.58-1.73,0.87-2.2,0.89l-0.07,0
				C174.28,270.87,174.14,270.84,174.05,270.77"/>
			<path class="st0" d="M177.35,270.82c-0.03-0.03-0.04-0.06-0.05-0.11c0-0.05,0.02-0.11,0.06-0.15c0.04-0.03,0.08-0.04,0.12-0.05
				c0.05,0,0.11,0.02,0.15,0.06c0.08,0.1,0.22,0.14,0.43,0.14c0.22-0.01,0.43-0.08,0.64-0.2c0.07-0.04,0.14-0.1,0.21-0.18
				c0.07-0.08,0.1-0.17,0.09-0.27c0-0.03-0.01-0.07-0.03-0.12c-0.04-0.08-0.11-0.16-0.21-0.25c-0.1-0.08-0.16-0.13-0.18-0.15
				c-0.12-0.09-0.22-0.16-0.29-0.24c-0.07-0.07-0.12-0.15-0.15-0.23l-0.09,0.06c-0.03,0.03-0.06,0.04-0.11,0.05
				c-0.07,0-0.12-0.02-0.15-0.08c-0.02-0.03-0.03-0.06-0.03-0.11c0-0.07,0.02-0.12,0.08-0.15c0.22-0.17,0.38-0.28,0.47-0.33
				c0.04-0.02,0.07-0.03,0.09-0.03c0.05,0,0.09,0.02,0.14,0.06c0.03,0.03,0.04,0.06,0.05,0.11c0,0.05-0.01,0.09-0.04,0.14
				c-0.04,0.07-0.06,0.11-0.05,0.14c0,0.05,0.11,0.16,0.31,0.32c0.13,0.1,0.24,0.18,0.32,0.26c0.08,0.08,0.14,0.17,0.19,0.27
				c0.05,0.11,0.08,0.21,0.08,0.3c0,0.04-0.01,0.09-0.02,0.16c0.48-0.27,1.22-0.8,2.23-1.57c0.03-0.02,0.06-0.03,0.11-0.03
				c0.06,0,0.12,0.02,0.17,0.08c0.02,0.02,0.03,0.05,0.03,0.11c0,0.07-0.02,0.12-0.08,0.15c-0.88,0.67-1.59,1.18-2.13,1.52
				c-0.54,0.34-1,0.53-1.38,0.59l-0.23,0.02C177.76,271.11,177.52,271.02,177.35,270.82"/>
		</g>
		<g>
			<path class="st0" d="M181.56,270.61c0,0-0.04-0.08-0.13-0.25c-0.05-0.08-0.08-0.21-0.08-0.38c-0.01-0.23,0.04-0.52,0.13-0.88
				c0.03-0.08,0.04-0.13,0.05-0.15c-0.01-0.01-0.01-0.03-0.02-0.07c0-0.04,0.01-0.07,0.04-0.11l0.06-0.1c0.11-0.32,0.24-0.65,0.4-1
				c-0.22,0.03-0.36,0.04-0.44,0.04c-0.14,0.01-0.25-0.01-0.33-0.03c-0.05-0.02-0.08-0.05-0.11-0.1c-0.02-0.05-0.03-0.1-0.01-0.14
				c0.02-0.05,0.05-0.08,0.09-0.11c0.05-0.02,0.09-0.03,0.14-0.01c0.05,0.01,0.12,0.01,0.21,0.01c0.15-0.01,0.36-0.03,0.63-0.08
				c0.23-0.49,0.44-0.92,0.62-1.28c0.19-0.36,0.29-0.55,0.31-0.58c0.04-0.07,0.1-0.1,0.19-0.09l0.03,0c0.05,0,0.1,0.02,0.14,0.06
				c0.04,0.04,0.05,0.08,0.05,0.13c-0.02,0.48-0.17,1.01-0.46,1.58c0.89-0.22,1.43-0.39,1.62-0.5c0.04-0.02,0.07-0.03,0.09-0.03
				c0.07,0,0.12,0.03,0.15,0.09c0.02,0.03,0.03,0.07,0.03,0.09c0,0.06-0.03,0.12-0.09,0.17c-0.12,0.07-0.36,0.16-0.71,0.27
				c-0.35,0.11-0.71,0.2-1.06,0.28c-0.05,0.02-0.14,0.04-0.27,0.07c-0.24,0.42-0.53,0.87-0.88,1.35l-0.11,0.36
				c-0.09,0.3-0.13,0.56-0.12,0.76c0,0.1,0.02,0.17,0.05,0.22c0.02,0.05,0.06,0.08,0.13,0.08c0.07,0.01,0.24-0.04,0.49-0.13
				c0.26-0.09,0.66-0.28,1.2-0.58c0.36-0.2,0.7-0.39,1.02-0.59c0.33-0.2,0.55-0.35,0.67-0.44c0.04-0.02,0.07-0.03,0.11-0.03
				c0.06,0,0.12,0.02,0.17,0.08c0.02,0.03,0.03,0.07,0.03,0.09c0,0.06-0.02,0.12-0.08,0.17c-0.16,0.12-0.4,0.27-0.73,0.48
				c-0.33,0.2-0.66,0.4-1,0.58c-0.89,0.49-1.51,0.74-1.85,0.75l-0.08,0C181.66,270.62,181.56,270.61,181.56,270.61"/>
			<path class="st0" d="M184.69,273.8c-0.08-0.04-0.12-0.11-0.1-0.2c0.15-0.7,0.47-1.38,0.95-2.03c0.16-0.23,0.38-0.48,0.66-0.78
				c0.11-0.28,0.24-0.69,0.39-1.23c-0.28,0.22-0.5,0.37-0.68,0.44c-0.16,0.07-0.31,0.11-0.43,0.11c-0.15,0.01-0.29-0.03-0.4-0.12
				c-0.12-0.11-0.19-0.24-0.19-0.42c-0.01-0.29,0.12-0.62,0.39-1c0-0.05,0.01-0.08,0.04-0.12c0.03-0.03,0.06-0.05,0.11-0.07
				l0.05-0.02c0.08,0,0.14,0.03,0.18,0.1c0.02,0.02,0.03,0.05,0.03,0.1c0,0.05-0.02,0.11-0.06,0.17l-0.01,0.01
				c-0.23,0.32-0.35,0.58-0.34,0.78c0,0.08,0.02,0.14,0.06,0.16c0.03,0.03,0.08,0.04,0.15,0.03c0.14,0,0.32-0.08,0.54-0.21
				c0.22-0.14,0.47-0.35,0.74-0.64c0.04-0.05,0.09-0.07,0.15-0.06c0.06,0,0.11,0.02,0.14,0.08c0.04,0.04,0.05,0.09,0.03,0.14
				c-0.05,0.35-0.15,0.75-0.28,1.21l0.3-0.26c0.69-0.58,1.5-1.11,2.43-1.6l0.05-0.03c0.02-0.01,0.05-0.01,0.08-0.02
				c0.07,0,0.13,0.02,0.17,0.08c0.02,0.02,0.03,0.05,0.03,0.11c0,0.05-0.02,0.11-0.08,0.15l-0.08,0.04
				c-0.89,0.46-1.67,0.98-2.37,1.55c-0.26,0.2-0.53,0.44-0.82,0.73c-0.42,1.15-0.95,2.07-1.59,2.77c-0.03,0.04-0.08,0.06-0.14,0.06
				C184.74,273.83,184.71,273.82,184.69,273.8"/>
		</g>
		<g>
			<path class="st0" d="M191.03,266.23c0.03-0.06,0.12-0.28,0.29-0.68c-0.34,0.55-0.64,1.15-0.92,1.79
				C190.59,267.05,190.8,266.68,191.03,266.23 M189.37,270.25c-0.07-0.1-0.1-0.23-0.11-0.41c-0.01-0.31,0.07-0.74,0.25-1.28
				l0.03-0.04c0.01-0.06,0.03-0.12,0.06-0.18c0.33-0.94,0.72-1.81,1.18-2.62c0.14-0.25,0.29-0.5,0.46-0.74
				c0.09-0.11,0.17-0.2,0.24-0.25c0.07-0.06,0.14-0.07,0.22-0.05c0.07,0.02,0.12,0.08,0.14,0.17c0.06,0.21-0.09,0.71-0.45,1.51
				c-0.41,0.86-0.92,1.64-1.51,2.34c-0.08,0.22-0.16,0.49-0.22,0.79c-0.02,0.15-0.03,0.26-0.03,0.34c0,0.09,0.02,0.16,0.05,0.22
				c0.05,0.04,0.09,0.07,0.13,0.06c0.06,0.01,0.23-0.04,0.49-0.14c0.26-0.1,0.65-0.31,1.18-0.63c0.53-0.32,1.09-0.69,1.68-1.1
				c0.02-0.02,0.05-0.03,0.11-0.03c0.08,0,0.13,0.02,0.15,0.06c0.02,0.03,0.03,0.06,0.03,0.11c0,0.06-0.02,0.12-0.08,0.17
				c-0.64,0.44-1.21,0.82-1.71,1.12c-0.89,0.54-1.5,0.82-1.82,0.83l-0.08,0C189.59,270.47,189.46,270.39,189.37,270.25"/>
		</g>
		<g>
			<path class="st0" d="M193.72,268.24c-0.07,0.06-0.12,0.11-0.16,0.14l-0.12,0.11C193.56,268.41,193.65,268.33,193.72,268.24
				 M192.93,270.07c-0.1-0.07-0.17-0.14-0.22-0.22c-0.07-0.1-0.1-0.22-0.11-0.37c-0.01-0.2,0.04-0.4,0.14-0.61
				c0.11-0.25,0.28-0.49,0.51-0.72c0.23-0.23,0.43-0.37,0.6-0.41l0.08-0.02c0.06,0,0.12,0.01,0.18,0.05
				c0.08,0.07,0.11,0.17,0.09,0.3c-0.03,0.16-0.14,0.35-0.33,0.55c-0.19,0.2-0.47,0.38-0.84,0.53c-0.04,0.14-0.06,0.25-0.06,0.33
				c0,0.07,0.02,0.13,0.05,0.18c0.04,0.09,0.16,0.13,0.36,0.12c0.36-0.01,0.87-0.21,1.55-0.58c0.67-0.37,1.29-0.75,1.84-1.12
				c0.03-0.02,0.07-0.03,0.11-0.03c0.06,0,0.11,0.02,0.15,0.08c0.03,0.03,0.04,0.06,0.05,0.11c0,0.06-0.03,0.11-0.09,0.15
				c-0.07,0.05-0.24,0.16-0.52,0.34c-0.28,0.18-0.57,0.36-0.88,0.55c-1,0.58-1.73,0.87-2.2,0.89l-0.07,0
				C193.16,270.17,193.03,270.13,192.93,270.07"/>
			<path class="st0" d="M123.93,260.42l-0.05,1.4h-1.18v-10.76h1.36v4.23c0.64-0.88,1.72-1.43,2.92-1.43c2.13,0,3.7,1.83,3.7,4.09
				c0,2.26-1.56,4.09-3.7,4.09C125.7,262.03,124.57,261.41,123.93,260.42 M129.31,257.94c0-1.87-1.2-3-2.67-3s-2.67,1.13-2.67,3
				s1.2,3,2.67,3S129.31,259.81,129.31,257.94"/>
		</g>
		<g>
			<path class="st0" d="M131.91,257.94c0-2.26,1.72-4.16,4.23-4.16c2.49,0,4.22,1.9,4.22,4.16c0,2.28-1.72,4.16-4.22,4.16
				C133.63,262.1,131.91,260.22,131.91,257.94 M138.99,257.94c0-1.69-1.09-3.07-2.85-3.07c-1.78,0-2.87,1.38-2.87,3.07
				c0,1.7,1.11,3.07,2.87,3.07C137.9,261.01,138.99,259.65,138.99,257.94"/>
			<path class="st0" d="M141.59,257.94c0-2.26,1.56-4.09,3.7-4.09c1.27,0,2.4,0.63,3.05,1.61l0.05-1.4h1.18v7.75h-1.18l-0.05-1.4
				c-0.65,0.99-1.78,1.61-3.05,1.61C143.15,262.03,141.59,260.2,141.59,257.94 M148.3,257.94c0-1.87-1.2-3-2.67-3
				c-1.47,0-2.67,1.13-2.67,3s1.2,3,2.67,3C147.1,260.94,148.3,259.81,148.3,257.94"/>
			<path class="st0" d="M151.44,254.07h1.18l0.09,1.49c0.5-0.95,1.7-1.7,3.01-1.7v1.47c-1.47-0.27-2.92,0.57-2.92,1.88v4.61h-1.36
				V254.07z"/>
			<path class="st0" d="M156.64,257.94c0-2.26,1.56-4.09,3.69-4.09c1.2,0,2.28,0.55,2.92,1.43v-4.23h1.36v10.76h-1.18l-0.05-1.4
				c-0.65,0.99-1.78,1.61-3.05,1.61C158.2,262.03,156.64,260.2,156.64,257.94 M163.35,257.94c0-1.87-1.2-3-2.67-3
				c-1.47,0-2.67,1.13-2.67,3s1.2,3,2.67,3C162.15,260.94,163.35,259.81,163.35,257.94"/>
			<polygon class="st0" points="165.52,254.07 166.86,254.07 169.07,259.9 171.27,254.07 172.08,254.07 174.31,259.9 176.49,254.07 
				177.77,254.07 174.72,261.84 173.84,261.84 171.65,256.22 169.43,261.84 168.57,261.84 			"/>
			<path class="st0" d="M178.57,257.94c0-2.26,1.56-4.09,3.69-4.09c1.27,0,2.4,0.63,3.05,1.61l0.05-1.4h1.18v7.75h-1.18l-0.05-1.4
				c-0.65,0.99-1.78,1.61-3.05,1.61C180.13,262.03,178.57,260.2,178.57,257.94 M185.28,257.94c0-1.87-1.2-3-2.67-3
				c-1.47,0-2.67,1.13-2.67,3s1.2,3,2.67,3C184.08,260.94,185.28,259.81,185.28,257.94"/>
			<rect x="188.06" y="251.06" class="st0" width="1.36" height="10.76"/>
		</g>
		<g>
			<polygon class="st0" points="190.93,251.06 192.29,251.06 192.29,257.37 195.99,254.07 197.67,254.07 193.73,257.53 
				197.82,261.82 196.04,261.82 192.29,257.8 192.29,261.82 190.93,261.82 			"/>
			<path class="st0" d="M160.95,250.85l-17.2-9.37c-0.06-0.03-0.13-0.03-0.2,0l-17.2,9.37c-0.26,0.14-0.19,0.67,0.1,0.67h34.4
				C161.14,251.52,161.22,251,160.95,250.85 M158.47,250.74h-18.25l3.2-1.73c0.17-0.09,0.25-0.36,0.18-0.59
				c-0.07-0.23-0.27-0.32-0.44-0.23l-4.71,2.55h-2.02l6.99-3.78c0.17-0.09,0.25-0.35,0.18-0.58c-0.07-0.23-0.26-0.34-0.43-0.25
				l-8.51,4.61h-2.39l11.12-5.93c0.17-0.09,0.27-0.36,0.21-0.59c-0.05-0.23-0.24-0.35-0.41-0.26l-12.72,6.78h-1.57
				c-0.13,0-0.16-0.24-0.04-0.3l14.8-8.07l14.86,8.1C158.62,250.53,158.59,250.74,158.47,250.74"/>
		</g>
	</g>
</g>
</svg>
