<?xml version="1.0" encoding="utf-8"?>
<!-- Generator: Adobe Illustrator 23.0.1, SVG Export Plug-In . SVG Version: 6.00 Build 0)  -->
<svg version="1.1" xmlns="http://www.w3.org/2000/svg" xmlns:xlink="http://www.w3.org/1999/xlink" x="0px" y="0px"
	 viewBox="0 0 196.48 159.55" style="enable-background:new 0 0 196.48 159.55;" xml:space="preserve">
<style type="text/css">
	.st0{fill:none;stroke:#636466;stroke-width:0.25;}
</style>
<g id="Layer_1">
	<g id="Brio">
		<g>
			<path d="M79.44,10.71h15.3c8.08,0,10.23,4.21,10.23,10.4v9.8c0,5.33-2.32,7.91-4.81,8.85c2.58,0.86,5.59,3.01,5.59,9.37v13.84
				c0,6.79-3.01,11.69-10.31,11.69H79.44V10.71z M89.16,19.39v16.59h2.92c2.58,0,3.35-1.81,3.35-4.47v-8.08
				c0-2.58-0.69-4.04-3.35-4.04H89.16z M89.16,45.52v20.11h2.92c3.09,0,3.78-1.46,3.78-4.3V49.65c0-2.66-0.69-4.13-3.78-4.13H89.16z
				"/>
			<path d="M120.7,74.66h-9.71V10.71h15.73c6.45,0,9.71,2.75,9.71,9.88v11.35c0,5.33-2.49,7.39-4.21,8.17
				c2.15,0.95,4.21,2.66,4.21,6.96V69.5c0,2.58,0.52,3.78,0.95,4.73v0.43h-9.63c-0.43-0.69-0.95-1.81-0.95-5.24V50.16
				c0-2.84-0.52-4.04-3.61-4.04h-2.49V74.66z M120.7,37.01h2.58c2.67,0,3.52-1.72,3.52-4.56v-8.94c0-2.75-0.6-4.13-3.52-4.13h-2.58
				V37.01z"/>
			<path d="M152.93,74.66h-9.71V10.71h9.71V74.66z"/>
			<path d="M186.28,60.39c0,8.94-3.01,15.04-12.38,15.04h-1.63c-9.28,0-12.55-6.1-12.55-15.04V24.81c0-8.85,3.35-14.7,12.46-14.7
				h1.63c9.46,0,12.46,5.84,12.46,14.61V60.39z M176.39,24.29c0-3.35-1.12-4.9-3.35-4.9c-2.49,0-3.44,1.63-3.44,4.9v36.79
				c0,2.75,0.77,4.9,3.52,4.9c2.58,0,3.27-2.15,3.27-4.9V24.29z"/>
		</g>
	</g>
	<g id="B">
		<path d="M42.5,57.67H27.38v25.68H42.5c7.08,0,12.84-5.76,12.84-12.84C55.34,63.43,49.58,57.67,42.5,57.67z M42.5,79.88H30.85
			V61.14H42.5c5.17,0,9.37,4.2,9.37,9.37S47.67,79.88,42.5,79.88z"/>
		<path d="M50.61,53.16c6.57-3.02,11.14-9.66,11.14-17.35c0-10.52-8.56-19.08-19.08-19.08H20.93v72.85h21.74
			c10.52,0,19.08-8.56,19.08-19.08C61.75,62.82,57.18,56.18,50.61,53.16z M24.4,20.2h18.27c8.61,0,15.61,7,15.61,15.61
			c0,8.61-7,15.61-15.61,15.61L24.4,51.43V20.2z M42.67,86.12H24.4V54.9h18.27c8.61,0,15.61,7,15.61,15.61
			C58.28,79.12,51.28,86.12,42.67,86.12z"/>
		<path d="M55.49,35.81c0-7.12-5.79-12.91-12.91-12.91H27.38v25.83h15.19C49.69,48.73,55.49,42.93,55.49,35.81z M42.57,45.26H30.85
			V26.37h11.72c5.21,0,9.44,4.24,9.44,9.44C52.02,41.02,47.78,45.26,42.57,45.26z"/>
		<path d="M68.17,35.81c0-13.94-11.34-25.28-25.28-25.28l-28.34,0.01v85.25l28.34,0c13.94,0,25.28-11.34,25.28-25.28
			c0-6.45-2.49-12.68-6.89-17.35C65.67,48.49,68.17,42.26,68.17,35.81z M64.7,70.51c0,12.03-9.79,21.81-21.81,21.81l-24.87,0V14.01
			L42.88,14c12.03,0,21.81,9.79,21.81,21.81c0,6.09-2.58,11.95-7.06,16.07l-1.39,1.28l1.39,1.28C62.12,58.56,64.7,64.42,64.7,70.51z
			"/>
	</g>
	<g id="Brentwood">
		<g>
			<path d="M78.77,94.6h1.41v-8.81h-1.41v-1.11h4.42c2.61,0,3.7,1.32,3.7,2.8c0,1.32-0.82,2.21-2.01,2.58
				c1.47,0.39,2.33,1.21,2.33,2.63c0,1.74-1.39,3.02-3.82,3.02h-4.62V94.6z M83.05,89.57c1.74,0,2.61-0.8,2.61-1.98
				c0-1.14-0.87-1.83-2.5-1.83h-1.74v3.8H83.05z M83.43,94.61c1.63,0,2.55-0.82,2.55-1.99c0-1.32-1.09-2.03-2.9-2.03h-1.66v4.02
				H83.43z"/>
			<path d="M89.36,94.6h1.41v-8.81h-1.41v-1.11h4.19c2.43,0,4,1.22,4,3.2c0,1.51-0.97,2.56-2.36,3.02l2.31,3.7h1.32v1.11h-2.18
				l-2.71-4.51c-0.2,0.02-0.42,0.03-0.64,0.03c-0.44,0-0.95-0.02-1.27-0.03v3.4h1.44v1.11h-4.1V94.6z M96.3,87.91
				c0-1.39-1.11-2.13-2.81-2.13h-1.46v4.32c0.34,0.02,0.8,0.03,1.34,0.03C95.04,90.14,96.3,89.37,96.3,87.91z"/>
			<path d="M100.62,94.6h1.41v-8.81h-1.41v-1.11h8.01v2.7h-1.19v-1.61h-4.16v3.79h3.6v1.07h-3.6v3.99h4.16V93h1.21v2.7h-8.02V94.6z"
				/>
			<path d="M113.53,86.86v7.74h1.44v1.11h-4.05V94.6h1.41v-8.81h-1.41v-1.11h2.5l6.37,8.39v-7.29h-1.46v-1.11h4v1.11h-1.36v9.95
				l-0.69,0.02L113.53,86.86z"/>
			<path d="M126.65,94.6h1.49v-8.86h-2.76v1.78h-1.19v-2.83h9.16v2.83h-1.19v-1.78h-2.76v8.86h1.49v1.11h-4.24V94.6z"/>
			<path d="M136.41,85.78h-1.27v-1.11h3.99v1.11h-1.39l2.31,7.72l2.76-7.51h0.69l2.78,7.49l2.25-7.71h-1.44v-1.11h3.97v1.11h-1.27
				l-3.08,10.09h-0.72l-2.85-7.59l-2.87,7.59h-0.72L136.41,85.78z"/>
			<path d="M150.97,90.21c0-3.23,2.36-5.73,5.61-5.73c3.2,0,5.54,2.51,5.54,5.7c0,3.23-2.38,5.73-5.61,5.73
				C153.3,95.9,150.97,93.39,150.97,90.21z M160.83,90.21c0-2.6-1.78-4.59-4.29-4.59c-2.53,0-4.31,1.98-4.31,4.56
				c0,2.6,1.78,4.59,4.31,4.59C159.06,94.76,160.83,92.79,160.83,90.21z"/>
			<path d="M163.31,90.21c0-3.23,2.36-5.73,5.61-5.73c3.2,0,5.55,2.51,5.55,5.7c0,3.23-2.38,5.73-5.61,5.73
				C165.64,95.9,163.31,93.39,163.31,90.21z M173.18,90.21c0-2.6-1.78-4.59-4.29-4.59c-2.53,0-4.31,1.98-4.31,4.56
				c0,2.6,1.78,4.59,4.31,4.59C171.4,94.76,173.18,92.79,173.18,90.21z"/>
			<path d="M176.01,94.6h1.41v-8.81h-1.41v-1.11h4.14c3.84,0,6.33,2.13,6.33,5.4c0,3.33-2.33,5.63-6.38,5.63h-4.09V94.6z
				 M180.25,94.6c3.3,0,4.96-1.84,4.96-4.54c0-2.65-1.98-4.27-5.09-4.27h-1.44v8.81H180.25z"/>
		</g>
	</g>
</g>
<g id="Layer_3">
	<g>
		<path d="M18.4,127.67c0.32,0,0.58-0.02,0.79-0.07c0.21-0.05,0.38-0.12,0.5-0.2c0.12-0.09,0.21-0.19,0.26-0.31
			c0.05-0.12,0.08-0.25,0.08-0.38c0-0.14-0.03-0.27-0.08-0.39c-0.05-0.12-0.14-0.22-0.26-0.31c-0.12-0.09-0.29-0.15-0.5-0.2
			c-0.21-0.05-0.47-0.07-0.79-0.07h-2.27v1.93H18.4z M18.74,124.61c0.42,0,0.8,0.04,1.14,0.11c0.34,0.07,0.64,0.19,0.88,0.35
			s0.43,0.37,0.57,0.63c0.13,0.26,0.2,0.57,0.2,0.95c0,0.57-0.17,1.01-0.51,1.32c-0.34,0.31-0.8,0.51-1.38,0.61l1.75,2.48
			c0.06,0.09,0.13,0.14,0.22,0.16c0.08,0.02,0.16,0.03,0.23,0.03v0.23h-2.46v-0.23c0.08,0,0.15-0.01,0.2-0.04
			c0.06-0.03,0.09-0.06,0.09-0.1c0-0.04-0.02-0.09-0.05-0.15c-0.03-0.06-0.09-0.13-0.16-0.23L18,128.68h-1.88v2.32
			c0,0.08,0.03,0.14,0.09,0.18c0.06,0.04,0.16,0.06,0.31,0.06v0.23h-2.27v-0.23c0.25,0,0.38-0.08,0.38-0.24v-5.92
			c0-0.16-0.13-0.23-0.38-0.23v-0.24H18.74z"/>
		<path d="M25.48,131.24c0.23,0,0.34-0.08,0.34-0.24v-5.92c0-0.16-0.11-0.23-0.34-0.23v-0.24h2.18v0.24c-0.23,0-0.34,0.08-0.34,0.23
			V131c0,0.16,0.11,0.24,0.34,0.24v0.23h-2.18V131.24z"/>
		<path d="M34.58,125.89c-0.33,0.1-0.63,0.26-0.9,0.45c-0.27,0.19-0.48,0.44-0.65,0.72c-0.17,0.29-0.25,0.61-0.25,0.98
			c0,0.36,0.08,0.69,0.25,0.98c0.17,0.29,0.38,0.53,0.65,0.73c0.27,0.2,0.57,0.35,0.9,0.45c0.33,0.1,0.67,0.16,1,0.16
			s0.67-0.05,1-0.16c0.33-0.1,0.63-0.25,0.9-0.45c0.27-0.2,0.48-0.44,0.65-0.73c0.17-0.29,0.25-0.61,0.25-0.98
			c0-0.37-0.08-0.69-0.25-0.98c-0.17-0.29-0.38-0.53-0.65-0.72c-0.27-0.2-0.57-0.35-0.9-0.45c-0.33-0.1-0.67-0.16-1-0.16
			S34.91,125.79,34.58,125.89 M37.05,124.75c0.5,0.14,0.95,0.36,1.37,0.65c0.41,0.29,0.75,0.65,1.01,1.09
			c0.26,0.44,0.39,0.96,0.39,1.56c0,0.6-0.13,1.12-0.39,1.56c-0.26,0.44-0.6,0.8-1.01,1.09c-0.41,0.29-0.87,0.5-1.37,0.63
			c-0.5,0.13-0.99,0.2-1.47,0.2c-0.48,0-0.97-0.07-1.47-0.2c-0.5-0.13-0.95-0.34-1.37-0.63c-0.41-0.29-0.75-0.65-1.01-1.09
			c-0.26-0.44-0.39-0.96-0.39-1.56c0-0.6,0.13-1.12,0.39-1.56c0.26-0.44,0.6-0.8,1.01-1.09c0.41-0.29,0.87-0.5,1.37-0.65
			c0.5-0.14,0.99-0.22,1.47-0.22C36.06,124.53,36.55,124.61,37.05,124.75"/>
		<path d="M59.76,130.51c-0.03,0-0.05,0-0.07-0.01c-0.02,0-0.05-0.01-0.07-0.01c-0.05,0-0.18,0.05-0.38,0.16
			c-0.2,0.1-0.45,0.22-0.75,0.35c-0.3,0.13-0.65,0.24-1.03,0.34c-0.38,0.1-0.79,0.14-1.21,0.14c-0.55,0-1.08-0.07-1.59-0.21
			c-0.51-0.14-0.96-0.35-1.35-0.65c-0.39-0.29-0.7-0.65-0.93-1.09c-0.23-0.43-0.34-0.94-0.34-1.53c0-0.57,0.11-1.08,0.34-1.52
			c0.23-0.44,0.54-0.81,0.93-1.1s0.84-0.52,1.35-0.67s1.04-0.22,1.59-0.22c0.45,0,0.85,0.04,1.22,0.1c0.36,0.07,0.68,0.14,0.95,0.22
			c0.27,0.08,0.49,0.15,0.64,0.22c0.16,0.07,0.25,0.1,0.29,0.1c0.04,0,0.08-0.02,0.11-0.07c0.03-0.04,0.05-0.08,0.07-0.1l0.2,0.16
			l-1.02,1.58l-0.13-0.09c0-0.03,0-0.05-0.01-0.08c0-0.03-0.01-0.06-0.02-0.09c-0.02-0.1-0.1-0.19-0.26-0.29
			c-0.16-0.1-0.35-0.19-0.58-0.27c-0.23-0.08-0.48-0.14-0.74-0.2c-0.26-0.05-0.5-0.08-0.72-0.08c-0.37,0-0.72,0.05-1.06,0.16
			c-0.34,0.1-0.63,0.26-0.88,0.46c-0.25,0.2-0.45,0.45-0.6,0.74c-0.15,0.29-0.22,0.63-0.22,1c0,0.37,0.07,0.71,0.22,1
			c0.15,0.29,0.35,0.54,0.6,0.74c0.25,0.2,0.54,0.35,0.88,0.46c0.34,0.1,0.69,0.16,1.06,0.16c0.28,0,0.57-0.03,0.88-0.1
			c0.31-0.06,0.59-0.15,0.84-0.25c0.25-0.1,0.47-0.21,0.64-0.34c0.17-0.13,0.26-0.25,0.26-0.36c0-0.06-0.02-0.11-0.05-0.16l0.18-0.1
			l0.87,1.38L59.76,130.51z"/>
		<path d="M67.49,128.79l-1.1-2.43l-1.24,2.43H67.49z M62.54,131.22c0.11-0.02,0.2-0.07,0.27-0.17c0.07-0.09,0.13-0.2,0.19-0.33
			l2.43-5.08c0.06-0.11,0.12-0.22,0.16-0.31c0.05-0.1,0.07-0.18,0.07-0.25c0-0.09-0.03-0.15-0.09-0.18
			c-0.06-0.03-0.13-0.06-0.2-0.08v-0.24h2.22v0.24c-0.06,0.02-0.12,0.04-0.18,0.07c-0.06,0.03-0.09,0.09-0.09,0.19
			c0,0.07,0.01,0.14,0.05,0.21c0.03,0.07,0.08,0.16,0.14,0.28l2.73,5.31c0.04,0.1,0.1,0.17,0.18,0.21c0.07,0.04,0.16,0.09,0.26,0.13
			v0.23h-2.31v-0.23c0.04,0,0.08-0.01,0.13-0.04c0.05-0.03,0.08-0.07,0.08-0.12c0-0.09-0.03-0.2-0.1-0.34l-0.5-0.97h-3.21
			l-0.47,0.93c-0.09,0.18-0.13,0.31-0.13,0.39c0,0.1,0.08,0.14,0.25,0.14v0.23h-1.86V131.22z"/>
		<path d="M73.67,131.22c0.17,0,0.25-0.08,0.25-0.24v-5.92c0-0.16-0.08-0.23-0.25-0.23v-0.24h2.25v0.24c-0.07,0-0.11,0.04-0.11,0.13
			c0,0.07,0.09,0.19,0.26,0.37l3.77,3.89v-4.15c0-0.16-0.11-0.23-0.34-0.23v-0.24h1.98v0.24c-0.17,0-0.25,0.08-0.25,0.23v5.92
			c0,0.16,0.08,0.24,0.25,0.24v0.23h-2.13v-0.23c0.11,0,0.17-0.04,0.17-0.12c0-0.06-0.07-0.16-0.21-0.3l-4.01-4.15v4.33
			c0,0.16,0.1,0.24,0.3,0.24v0.23h-1.94V131.22z"/>
		<polygon points="45.74,131.36 45.53,131.36 45.58,129.71 43.93,129.98 44.21,129.37 42.71,128.01 43.07,127.88 42.72,126.79 
			43.41,126.98 43.74,126.45 44.77,127.42 44.6,125.51 45.08,125.75 45.73,124.4 46.39,125.75 46.86,125.51 46.7,127.42 
			47.6,126.45 47.94,126.98 48.83,126.73 48.58,127.88 48.92,127.99 47.26,129.37 47.55,129.98 45.9,129.71 45.95,131.36 		"/>
		<polygon points="53.31,138.55 53.31,134.41 53.86,134.41 53.86,138.07 55.9,138.07 55.9,138.55 		"/>
		<rect x="58.61" y="134.41" width="0.55" height="4.14"/>
		<path d="M63.28,138.55l-1.6-4.14h0.59l1.08,3.01c0.09,0.24,0.16,0.47,0.22,0.68c0.06-0.23,0.14-0.45,0.22-0.68l1.12-3.01h0.56
			l-1.62,4.14H63.28z"/>
		<rect x="68.01" y="134.41" width="0.55" height="4.14"/>
		<polygon points="71.49,138.55 71.49,134.41 72.05,134.41 74.23,137.66 74.23,134.41 74.75,134.41 74.75,138.55 74.19,138.55 
			72.01,135.3 72.01,138.55 		"/>
		<path d="M79.58,136.93v-0.49l1.75,0v1.54c-0.27,0.21-0.55,0.38-0.83,0.48c-0.29,0.11-0.58,0.16-0.88,0.16
			c-0.41,0-0.78-0.09-1.11-0.26c-0.33-0.17-0.58-0.43-0.75-0.76c-0.17-0.33-0.25-0.7-0.25-1.1c0-0.4,0.09-0.78,0.25-1.13
			c0.17-0.35,0.41-0.61,0.73-0.78c0.32-0.17,0.68-0.25,1.09-0.25c0.3,0,0.57,0.05,0.81,0.15c0.24,0.1,0.43,0.23,0.57,0.41
			c0.14,0.17,0.24,0.4,0.31,0.68l-0.49,0.14c-0.06-0.21-0.14-0.38-0.23-0.5c-0.09-0.12-0.22-0.22-0.4-0.29
			c-0.17-0.07-0.36-0.11-0.57-0.11c-0.25,0-0.47,0.04-0.65,0.11c-0.18,0.08-0.33,0.18-0.44,0.3c-0.11,0.12-0.2,0.26-0.26,0.41
			c-0.1,0.26-0.16,0.53-0.16,0.83c0,0.37,0.06,0.68,0.19,0.93c0.13,0.25,0.31,0.43,0.56,0.55c0.24,0.12,0.5,0.18,0.77,0.18
			c0.24,0,0.47-0.05,0.7-0.14c0.23-0.09,0.4-0.19,0.51-0.29v-0.77H79.58z"/>
	</g>
	<line class="st0" x1="99.98" y1="117.06" x2="99.98" y2="145.73"/>
	<g>
		<path d="M152.54,144.3c-0.02-0.02-0.03-0.05-0.03-0.1c0-0.06,0.02-0.11,0.07-0.14c0.18-0.12,0.47-0.27,0.86-0.46
			c-0.02-0.28,0.05-0.72,0.19-1.3c0.18-0.69,0.42-1.45,0.74-2.27c0.33-0.87,0.68-1.66,1.05-2.38c0.37-0.72,0.69-1.24,0.97-1.56
			c0.04-0.04,0.08-0.06,0.12-0.06c0.03,0,0.07,0.01,0.12,0.04c0.03,0.03,0.05,0.07,0.05,0.12c0,0.05-0.01,0.09-0.04,0.12
			c-0.26,0.3-0.56,0.8-0.92,1.51c-0.36,0.71-0.71,1.48-1.04,2.33c-0.33,0.86-0.57,1.6-0.73,2.23c-0.11,0.46-0.17,0.82-0.18,1.06
			c0.62-0.29,1.28-0.56,1.97-0.81c0.76-0.28,1.4-0.47,1.94-0.58c0.26-0.05,0.46-0.08,0.6-0.08c0.33-0.01,0.56,0.05,0.68,0.18
			c0.03,0.03,0.04,0.07,0.04,0.11c0,0.06-0.01,0.1-0.04,0.13c-0.03,0.03-0.07,0.04-0.11,0.04c-0.06,0-0.1-0.01-0.13-0.04
			c-0.04-0.06-0.19-0.09-0.43-0.08c-0.15,0.01-0.34,0.03-0.55,0.07c-0.53,0.11-1.16,0.3-1.89,0.58c-0.69,0.25-1.37,0.53-2.02,0.84
			h0.01c0.04,0.01,0.07,0.04,0.1,0.08c0.03,0.04,0.04,0.08,0.03,0.12c-0.01,0.03-0.03,0.06-0.06,0.09
			c-0.03,0.03-0.07,0.04-0.11,0.04l-0.04,0c-0.11-0.03-0.19-0.09-0.25-0.19c-0.36,0.17-0.61,0.3-0.75,0.4
			c-0.05,0.02-0.08,0.03-0.1,0.03C152.61,144.38,152.56,144.35,152.54,144.3"/>
		<path d="M159.68,138.86c-0.04-0.01-0.07-0.04-0.1-0.08c-0.03-0.03-0.03-0.07-0.03-0.11c0.05-0.26,0.3-0.4,0.75-0.42
			c0.1,0,0.23,0,0.41,0.01c0.04,0.01,0.07,0.03,0.1,0.06c0.03,0.03,0.04,0.06,0.05,0.1c0,0.05-0.02,0.09-0.06,0.13
			c-0.04,0.04-0.08,0.06-0.13,0.06c-0.1-0.01-0.23-0.02-0.39-0.01c-0.13,0.01-0.22,0.02-0.26,0.03c-0.1,0.03-0.14,0.06-0.14,0.1
			c-0.03,0.09-0.08,0.14-0.15,0.14C159.7,138.87,159.68,138.87,159.68,138.86 M159.08,142.13c0,0-0.04-0.03-0.11-0.09
			c-0.09-0.09-0.14-0.2-0.15-0.35c-0.01-0.15,0.02-0.3,0.09-0.48c0.07-0.22,0.19-0.48,0.35-0.79l0.06-0.12
			c0-0.05,0.01-0.09,0.04-0.12c0.05-0.03,0.09-0.05,0.13-0.05c0.03,0,0.07,0.01,0.1,0.03c0.03,0.01,0.05,0.03,0.06,0.07
			c0.02,0.04,0.01,0.09-0.01,0.13c0,0.01-0.01,0.03-0.02,0.06l-0.07,0.15c-0.02,0.05-0.07,0.15-0.15,0.31
			c-0.07,0.16-0.13,0.3-0.18,0.44c-0.09,0.25-0.11,0.4-0.06,0.45c0,0.01,0.04,0.01,0.12,0.01c0.08,0,0.22-0.05,0.43-0.14
			c0.21-0.09,0.48-0.24,0.83-0.45c0.47-0.3,0.93-0.62,1.37-0.97l0.01,0c0.04-0.03,0.07-0.04,0.1-0.04c0.06,0,0.11,0.02,0.15,0.07
			c0.02,0.03,0.03,0.06,0.03,0.08c0,0.06-0.02,0.11-0.07,0.15c0,0.01,0,0.01-0.01,0.01c-0.58,0.43-1.05,0.75-1.39,0.98
			c-0.43,0.25-0.76,0.42-0.99,0.52c-0.22,0.08-0.38,0.12-0.48,0.13C159.15,142.12,159.08,142.13,159.08,142.13"/>
		<path d="M163.29,137.55c-0.2,0.45-0.39,0.89-0.56,1.33C162.96,138.43,163.15,137.98,163.29,137.55 M160.57,143.91
			c-0.02-0.03-0.03-0.07-0.02-0.11c0.02-0.33,0.2-0.7,0.54-1.11c0.17-0.38,0.31-0.73,0.43-1.05c0.11-0.32,0.25-0.77,0.42-1.34
			l0.03-0.12l0.11-0.39c0.22-0.73,0.48-1.42,0.78-2.08c0.22-0.5,0.38-0.82,0.48-0.96c0.1-0.14,0.19-0.21,0.25-0.21
			c0.06,0,0.1,0.01,0.13,0.04c0.03,0.03,0.05,0.07,0.05,0.12c0.01,0.51-0.17,1.14-0.53,1.89c-0.36,0.75-0.7,1.36-1,1.81
			c-0.21,0.74-0.38,1.3-0.53,1.68c0.76-0.64,1.8-1.29,3.13-1.96l0.07-0.04c0.03-0.02,0.06-0.03,0.08-0.03c0.06,0,0.1,0.02,0.13,0.07
			c0.03,0.02,0.04,0.06,0.04,0.1c0,0.06-0.02,0.11-0.07,0.14l-0.11,0.06c-0.85,0.43-1.58,0.85-2.2,1.27
			c-0.62,0.42-1.09,0.81-1.42,1.18c-0.18,0.39-0.35,0.73-0.51,1.02c-0.04,0.05-0.09,0.08-0.14,0.08l-0.06,0
			C160.63,143.97,160.59,143.94,160.57,143.91"/>
		<path d="M165.42,140.11c-0.06,0.05-0.11,0.09-0.14,0.13l-0.1,0.1C165.27,140.26,165.35,140.19,165.42,140.11 M164.72,141.73
			c-0.09-0.06-0.15-0.12-0.19-0.19c-0.06-0.09-0.09-0.19-0.1-0.32c-0.01-0.18,0.04-0.36,0.13-0.54c0.1-0.22,0.25-0.43,0.45-0.64
			c0.2-0.2,0.38-0.33,0.53-0.36l0.07-0.01c0.06,0,0.11,0.01,0.16,0.04c0.07,0.06,0.09,0.15,0.08,0.26
			c-0.03,0.15-0.12,0.31-0.29,0.49c-0.17,0.18-0.41,0.34-0.74,0.47c-0.04,0.12-0.05,0.22-0.05,0.29c0,0.07,0.02,0.12,0.04,0.16
			c0.03,0.08,0.14,0.12,0.32,0.11c0.31-0.01,0.77-0.18,1.37-0.51c0.6-0.33,1.14-0.66,1.63-0.99c0.03-0.02,0.06-0.03,0.1-0.03
			c0.06,0,0.1,0.02,0.14,0.07c0.03,0.02,0.04,0.05,0.04,0.09c0,0.06-0.03,0.1-0.08,0.14c-0.06,0.04-0.22,0.14-0.46,0.3
			c-0.25,0.16-0.51,0.32-0.78,0.48c-0.89,0.51-1.53,0.77-1.95,0.79l-0.06,0C164.92,141.82,164.81,141.79,164.72,141.73"/>
		<path d="M167.65,141.77c-0.03-0.02-0.04-0.06-0.04-0.1c0-0.05,0.02-0.09,0.06-0.14c0.03-0.02,0.07-0.04,0.11-0.04
			c0.05,0,0.09,0.02,0.14,0.06c0.07,0.09,0.19,0.13,0.38,0.12c0.19-0.01,0.38-0.07,0.56-0.18c0.06-0.03,0.12-0.09,0.18-0.16
			c0.06-0.07,0.09-0.15,0.08-0.24c0-0.02-0.01-0.06-0.03-0.11c-0.04-0.07-0.1-0.14-0.19-0.22c-0.09-0.07-0.15-0.12-0.16-0.13
			c-0.11-0.08-0.19-0.15-0.26-0.21c-0.06-0.06-0.11-0.13-0.13-0.2l-0.08,0.05c-0.02,0.03-0.06,0.04-0.1,0.04
			c-0.06,0-0.11-0.02-0.14-0.07c-0.02-0.02-0.03-0.06-0.03-0.1c0-0.06,0.02-0.11,0.07-0.14c0.2-0.15,0.33-0.25,0.41-0.29
			c0.03-0.02,0.06-0.03,0.08-0.03c0.04,0,0.08,0.02,0.12,0.06c0.03,0.02,0.04,0.06,0.04,0.1c0,0.04-0.01,0.08-0.03,0.12
			c-0.04,0.06-0.05,0.1-0.04,0.12c0,0.05,0.09,0.14,0.28,0.28c0.12,0.08,0.21,0.16,0.28,0.23c0.07,0.07,0.13,0.15,0.17,0.24
			c0.04,0.09,0.07,0.18,0.07,0.26c0,0.03-0.01,0.08-0.02,0.15c0.43-0.24,1.08-0.71,1.97-1.39c0.02-0.02,0.06-0.03,0.1-0.03
			c0.06,0,0.11,0.02,0.15,0.07c0.02,0.02,0.03,0.05,0.03,0.1c0,0.06-0.02,0.11-0.07,0.14c-0.78,0.59-1.4,1.04-1.88,1.34
			c-0.48,0.3-0.89,0.47-1.22,0.52l-0.2,0.02C168.01,142.03,167.79,141.94,167.65,141.77"/>
	</g>
	<g>
		<path d="M171.37,141.59c0,0-0.04-0.07-0.12-0.23c-0.04-0.07-0.07-0.18-0.07-0.34c-0.01-0.2,0.03-0.46,0.12-0.78
			c0.02-0.07,0.04-0.12,0.04-0.14c-0.01-0.01-0.01-0.03-0.01-0.06c0-0.03,0.01-0.06,0.03-0.1l0.06-0.09
			c0.09-0.28,0.21-0.57,0.35-0.89c-0.19,0.02-0.32,0.04-0.39,0.04c-0.12,0-0.22,0-0.29-0.03c-0.04-0.01-0.07-0.04-0.09-0.09
			c-0.02-0.04-0.03-0.09-0.01-0.13c0.01-0.04,0.04-0.07,0.08-0.09c0.04-0.02,0.08-0.02,0.12-0.01c0.05,0.01,0.11,0.01,0.18,0.01
			c0.14-0.01,0.32-0.03,0.55-0.07c0.2-0.44,0.39-0.81,0.55-1.13c0.17-0.32,0.26-0.49,0.27-0.51c0.04-0.07,0.09-0.09,0.17-0.08
			l0.03,0c0.05,0,0.09,0.01,0.12,0.05c0.03,0.03,0.05,0.07,0.04,0.11c-0.02,0.43-0.15,0.89-0.41,1.4c0.78-0.2,1.26-0.35,1.44-0.44
			c0.03-0.02,0.06-0.03,0.08-0.03c0.06,0,0.11,0.02,0.14,0.08c0.02,0.03,0.03,0.06,0.03,0.08c0,0.06-0.02,0.11-0.08,0.15
			c-0.11,0.06-0.32,0.14-0.63,0.23c-0.31,0.1-0.62,0.18-0.94,0.25c-0.05,0.02-0.13,0.04-0.24,0.06c-0.21,0.37-0.47,0.77-0.78,1.19
			l-0.1,0.32c-0.08,0.27-0.12,0.49-0.11,0.67c0,0.09,0.02,0.15,0.04,0.19c0.02,0.05,0.06,0.07,0.11,0.07
			c0.06,0.01,0.21-0.03,0.44-0.11c0.23-0.08,0.58-0.25,1.07-0.51c0.32-0.17,0.62-0.35,0.91-0.52c0.29-0.18,0.49-0.31,0.6-0.39
			c0.03-0.02,0.06-0.03,0.1-0.03c0.06,0,0.11,0.02,0.15,0.07c0.02,0.03,0.03,0.06,0.03,0.08c0,0.06-0.02,0.11-0.07,0.15
			c-0.14,0.1-0.36,0.24-0.65,0.42c-0.29,0.18-0.59,0.35-0.89,0.52c-0.79,0.43-1.34,0.66-1.63,0.67l-0.07,0
			C171.46,141.59,171.37,141.59,171.37,141.59"/>
		<path d="M174.14,144.41c-0.07-0.04-0.1-0.1-0.09-0.18c0.13-0.62,0.41-1.22,0.84-1.8c0.15-0.2,0.34-0.43,0.58-0.69
			c0.1-0.25,0.21-0.61,0.35-1.09c-0.24,0.2-0.44,0.32-0.6,0.39c-0.14,0.06-0.27,0.1-0.38,0.1c-0.14,0.01-0.26-0.03-0.35-0.11
			c-0.11-0.09-0.17-0.22-0.17-0.37c-0.01-0.26,0.1-0.55,0.34-0.89c0-0.04,0.01-0.07,0.03-0.1c0.02-0.03,0.06-0.05,0.09-0.06
			l0.05-0.01c0.07,0,0.13,0.03,0.16,0.09c0.02,0.02,0.03,0.04,0.03,0.08c0,0.05-0.02,0.1-0.06,0.15l-0.01,0.01
			c-0.21,0.28-0.31,0.51-0.3,0.69c0,0.07,0.02,0.12,0.05,0.14c0.03,0.02,0.07,0.03,0.13,0.03c0.12,0,0.28-0.07,0.48-0.19
			c0.2-0.12,0.42-0.31,0.66-0.57c0.04-0.04,0.08-0.06,0.13-0.05c0.06,0,0.1,0.02,0.12,0.07c0.03,0.04,0.04,0.08,0.03,0.12
			c-0.05,0.31-0.13,0.67-0.25,1.08l0.27-0.23c0.61-0.52,1.33-0.99,2.15-1.41l0.05-0.03c0.02-0.01,0.04-0.01,0.07-0.01
			c0.06,0,0.11,0.02,0.15,0.07c0.02,0.02,0.03,0.05,0.03,0.1c0,0.05-0.02,0.09-0.07,0.14l-0.07,0.04c-0.79,0.41-1.48,0.87-2.09,1.37
			c-0.23,0.18-0.47,0.39-0.73,0.65c-0.37,1.01-0.84,1.83-1.41,2.45c-0.03,0.03-0.07,0.05-0.12,0.05
			C174.19,144.44,174.16,144.43,174.14,144.41"/>
	</g>
	<g>
		<path d="M179.75,137.71c0.02-0.05,0.11-0.25,0.26-0.6c-0.3,0.49-0.57,1.01-0.81,1.58C179.36,138.43,179.55,138.11,179.75,137.71
			 M178.29,141.27c-0.06-0.09-0.09-0.21-0.1-0.36c-0.01-0.27,0.06-0.65,0.22-1.13l0.02-0.04c0.01-0.05,0.02-0.1,0.05-0.16
			c0.29-0.83,0.64-1.61,1.04-2.32c0.12-0.22,0.26-0.44,0.41-0.66c0.08-0.1,0.15-0.17,0.21-0.23c0.06-0.05,0.13-0.07,0.19-0.04
			c0.07,0.02,0.11,0.07,0.13,0.15c0.06,0.18-0.08,0.63-0.4,1.33c-0.37,0.76-0.81,1.45-1.34,2.07c-0.07,0.2-0.14,0.43-0.19,0.7
			c-0.02,0.13-0.03,0.23-0.03,0.3c0,0.08,0.02,0.15,0.04,0.19c0.04,0.04,0.08,0.06,0.11,0.06c0.06,0.01,0.2-0.04,0.43-0.13
			c0.23-0.09,0.58-0.28,1.05-0.56c0.47-0.28,0.96-0.61,1.49-0.98c0.01-0.02,0.05-0.03,0.1-0.03c0.07,0,0.12,0.02,0.14,0.06
			c0.02,0.02,0.03,0.06,0.03,0.1c0,0.06-0.02,0.11-0.07,0.15c-0.57,0.39-1.07,0.72-1.51,0.99c-0.79,0.48-1.33,0.73-1.61,0.74
			l-0.07,0C178.48,141.47,178.36,141.39,178.29,141.27"/>
	</g>
	<g>
		<path d="M182.13,139.49c-0.06,0.05-0.11,0.09-0.14,0.13l-0.11,0.1C181.99,139.64,182.07,139.56,182.13,139.49 M181.44,141.11
			c-0.09-0.06-0.15-0.12-0.19-0.19c-0.06-0.09-0.09-0.19-0.1-0.32c-0.01-0.18,0.03-0.36,0.13-0.54c0.1-0.22,0.25-0.43,0.45-0.64
			c0.2-0.2,0.38-0.33,0.53-0.36l0.07-0.01c0.06,0,0.11,0.01,0.16,0.04c0.07,0.06,0.09,0.15,0.08,0.26
			c-0.03,0.15-0.12,0.31-0.29,0.49c-0.17,0.18-0.41,0.34-0.74,0.47c-0.04,0.12-0.05,0.22-0.05,0.29c0,0.07,0.02,0.12,0.04,0.16
			c0.04,0.08,0.14,0.12,0.32,0.11c0.31-0.01,0.77-0.18,1.37-0.51c0.6-0.33,1.14-0.66,1.63-0.99c0.03-0.02,0.06-0.03,0.1-0.03
			c0.06,0,0.1,0.02,0.14,0.07c0.03,0.02,0.04,0.06,0.04,0.1c0,0.06-0.03,0.1-0.08,0.14c-0.06,0.04-0.22,0.14-0.46,0.3
			c-0.24,0.16-0.51,0.32-0.78,0.48c-0.89,0.51-1.53,0.77-1.95,0.79l-0.06,0C181.64,141.19,181.52,141.17,181.44,141.11"/>
		<path d="M120.35,132.56l-0.05,1.24h-1.05v-9.53h1.21v3.75c0.57-0.78,1.52-1.27,2.59-1.27c1.89,0,3.27,1.62,3.27,3.62
			s-1.38,3.62-3.27,3.62C121.93,133.99,120.93,133.44,120.35,132.56 M125.12,130.37c0-1.65-1.06-2.65-2.37-2.65
			c-1.3,0-2.37,1-2.37,2.65s1.06,2.65,2.37,2.65C124.05,133.03,125.12,132.02,125.12,130.37"/>
	</g>
	<g>
		<path d="M127.42,130.37c0-2,1.52-3.68,3.75-3.68c2.21,0,3.73,1.68,3.73,3.68c0,2.02-1.52,3.68-3.73,3.68
			C128.94,134.06,127.42,132.39,127.42,130.37 M133.69,130.37c0-1.49-0.97-2.71-2.52-2.71c-1.57,0-2.54,1.22-2.54,2.71
			c0,1.51,0.98,2.71,2.54,2.71C132.72,133.09,133.69,131.88,133.69,130.37"/>
		<path d="M135.99,130.37c0-2,1.38-3.62,3.27-3.62c1.13,0,2.13,0.55,2.7,1.43l0.05-1.24h1.05v6.86h-1.05l-0.05-1.24
			c-0.57,0.87-1.57,1.43-2.7,1.43C137.37,133.99,135.99,132.37,135.99,130.37 M141.93,130.37c0-1.65-1.06-2.65-2.37-2.65
			c-1.3,0-2.37,1-2.37,2.65s1.06,2.65,2.37,2.65C140.86,133.03,141.93,132.02,141.93,130.37"/>
		<path d="M144.71,126.94h1.05l0.08,1.32c0.45-0.84,1.51-1.51,2.67-1.51v1.3c-1.3-0.24-2.59,0.51-2.59,1.67v4.08h-1.21V126.94z"/>
		<path d="M149.31,130.37c0-2,1.38-3.62,3.27-3.62c1.06,0,2.02,0.49,2.59,1.27v-3.75h1.21v9.53h-1.05l-0.05-1.24
			c-0.57,0.87-1.57,1.43-2.7,1.43C150.69,133.99,149.31,132.37,149.31,130.37 M155.25,130.37c0-1.65-1.06-2.65-2.37-2.65
			c-1.3,0-2.37,1-2.37,2.65s1.06,2.65,2.37,2.65C154.18,133.03,155.25,132.02,155.25,130.37"/>
		<polygon points="157.17,126.94 158.36,126.94 160.31,132.1 162.27,126.94 162.98,126.94 164.95,132.1 166.89,126.94 
			168.01,126.94 165.31,133.82 164.54,133.82 162.6,128.85 160.63,133.82 159.87,133.82 		"/>
		<path d="M168.73,130.37c0-2,1.38-3.62,3.27-3.62c1.13,0,2.13,0.55,2.7,1.43l0.05-1.24h1.05v6.86h-1.05l-0.05-1.24
			c-0.57,0.87-1.57,1.43-2.7,1.43C170.11,133.99,168.73,132.37,168.73,130.37 M174.66,130.37c0-1.65-1.06-2.65-2.37-2.65
			c-1.3,0-2.37,1-2.37,2.65s1.06,2.65,2.37,2.65C173.6,133.03,174.66,132.02,174.66,130.37"/>
		<rect x="177.13" y="124.28" width="1.21" height="9.53"/>
	</g>
	<g>
		<polygon points="179.67,124.28 180.87,124.28 180.87,129.87 184.14,126.94 185.64,126.94 182.14,130.01 185.76,133.8 
			184.19,133.8 180.87,130.25 180.87,133.8 179.67,133.8 		"/>
		<path d="M153.13,124.1l-15.22-8.3c-0.06-0.03-0.12-0.03-0.17,0l-15.22,8.3c-0.23,0.13-0.16,0.59,0.09,0.59h30.45
			C153.29,124.69,153.36,124.23,153.13,124.1 M150.94,123.99h-16.16l2.83-1.53c0.15-0.08,0.22-0.32,0.16-0.52
			c-0.06-0.2-0.24-0.29-0.39-0.2l-4.17,2.26h-1.79l6.19-3.35c0.15-0.08,0.22-0.31,0.16-0.51c-0.06-0.2-0.23-0.3-0.38-0.22
			l-7.53,4.08h-2.12l9.85-5.25c0.15-0.08,0.24-0.32,0.19-0.52c-0.05-0.21-0.21-0.31-0.36-0.23l-11.26,6.01h-1.39
			c-0.11,0-0.14-0.21-0.04-0.27l13.1-7.14l13.15,7.17C151.06,123.81,151.04,123.99,150.94,123.99"/>
	</g>
</g>
</svg>
